<svg width="375" height="533" viewBox="0 0 375 533" fill="none" xmlns="http://www.w3.org/2000/svg">
<path d="M408.244 266.5C408.244 413.499 309.273 532.5 187.372 532.5C65.4705 532.5 -33.5 413.499 -33.5 266.5C-33.5 119.501 65.4705 0.5 187.372 0.5C309.273 0.5 408.244 119.501 408.244 266.5Z" stroke="#F0EDED"/>
<path d="M378.971 266.5C378.971 393.964 293.107 497.129 187.372 497.129C81.6369 497.129 -4.22769 393.964 -4.22769 266.5C-4.22769 139.036 81.6369 35.8707 187.372 35.8707C293.107 35.8707 378.971 139.036 378.971 266.5Z" stroke="#F0EDED"/>
<path d="M353.358 265.89C353.358 376.176 278.962 465.418 187.372 465.418C95.7822 465.418 21.3856 376.176 21.3856 265.89C21.3856 155.604 95.7822 66.3627 187.372 66.3627C278.962 66.3627 353.358 155.604 353.358 265.89Z" stroke="#F0EDED"/>
<path d="M331.404 266.5C331.404 362.304 266.836 439.804 187.372 439.804C107.908 439.804 43.3398 362.304 43.3398 266.5C43.3398 170.696 107.908 93.1957 187.372 93.1957C266.836 93.1957 331.404 170.696 331.404 266.5Z" stroke="#F0EDED"/>
</svg>
